# xmcd
#
# Track frame offsets: 
#        150
#        24662
#        44857
#        62090
#        77980
#        94752
#        122085
#        140517
#        157632
#        177277
#        197020
#        211357
#        232740
#        246102
#
# Disc length: 3528 seconds
#
# Revision: 4
# Processed by: cddbd v1.5.2PL0 Copyright (c) Steve Scherf et al.
# Submitted via: ExactAudioCopy v0.99pb5
#
DISCID=bc0dc60e
DTITLE=Nathan and The Zydeco Cha Chas - Let's Go
DYEAR=2000
DGENRE=Folk
TTITLE0=Let's Go
TTITLE1=Too Much Wine
TTITLE2=Put A Hump In Your Back
TTITLE3=Zydeco Rumble
TTITLE4=Everything Happens For The Best
TTITLE5=Hard Times
TTITLE6=Zydeco Is All I Know
TTITLE7=Cricket Leg Zydeco
TTITLE8=Can't Get Nothin' Sucka
TTITLE9=El Sid O's Party
TTITLE10=You Don't Love Me No More
TTITLE11=Stay Out All Night
TTITLE12=Oh Mom
TTITLE13=Le Bon Manger
EXTD=
EXTT0=
EXTT1=
EXTT2=
EXTT3=
EXTT4=
EXTT5=
EXTT6=
EXTT7=
EXTT8=
EXTT9=
EXTT10=
EXTT11=
EXTT12=
EXTT13=
PLAYORDER=
